<svg height="513.12" viewBox="0 0 455.67 513.12" width="455.67" xmlns="http://www.w3.org/2000/svg"><path d="m379.3 264.75v-198.99c0-36.32-29.44-65.76-65.76-65.76h-247.78c-36.32 0-65.76 29.44-65.76 65.76v325.42c0 36.32 29.44 65.76 65.76 65.76h163.35v-38.18h-169c-11.4 0-20.65-9.24-20.65-20.65v-339.28c0-11.4 9.24-20.65 20.65-20.65h262.91c11.4 0 20.65 9.24 20.65 20.65v205.91h35.64z"/><path d="m342.39 304.2v113.88h-75.61l94.45 95.04 94.44-95.04h-76.37v-113.88z"/><path d="m191.21 115.83c0-20.78-16.84-37.62-37.62-37.62s-37.62 16.84-37.62 37.62 16.84 37.62 37.62 37.62 37.62-16.84 37.62-37.62m36.77 113.14c0-41.71-33.81-75.52-75.52-75.52s-75.52 33.81-75.52 75.52z"/><path d="m266.78 115.54h37.56v38.04h-37.56z"/><path d="m266.78 191.35h37.56v37.12h-37.56z"/><path d="m76.94 267.15h227.41v37.05h-227.41z"/><path d="m76.94 342.39h227.41v38.04h-227.41z"/></svg>