<svg id="Layer_1" data-name="Layer 1" xmlns="http://www.w3.org/2000/svg" width="455.67" height="513.12" xmlns:xlink="http://www.w3.org/1999/xlink" viewBox="0 0 455.67 513.12">
  <defs>
    <clipPath id="clippath">
      <rect class="cls-1" width="455.67" height="513.12"/>
    </clipPath>
    <clipPath id="clippath-1">
      <rect class="cls-1" width="455.67" height="513.12"/>
    </clipPath>
  </defs>
  <g class="cls-2">
    <path class="cls-3 dark:cls-3" d="m379.3,264.75V65.76c0-36.32-29.44-65.76-65.76-65.76H65.76C29.44,0,0,29.44,0,65.76v325.42c0,36.32,29.44,65.76,65.76,65.76h163.35v-38.18H60.11c-11.4,0-20.65-9.24-20.65-20.65V58.83c0-11.4,9.24-20.65,20.65-20.65h262.91c11.4,0,20.65,9.24,20.65,20.65v205.91h35.64Z"/>
  </g>
  <polygon class="cls-3 dark:cls-3" points="342.39 304.2 342.39 418.08 266.78 418.08 361.23 513.12 455.67 418.08 379.3 418.08 379.3 304.2 342.39 304.2"/>
  <g class="cls-4">
    <path class="cls-3 dark:cls-3" d="m191.21,115.83c0-20.78-16.84-37.62-37.62-37.62s-37.62,16.84-37.62,37.62,16.84,37.62,37.62,37.62,37.62-16.84,37.62-37.62m36.77,113.14c0-41.71-33.81-75.52-75.52-75.52s-75.52,33.81-75.52,75.52h151.04Z"/>
  </g>
  <rect class="cls-3" x="266.78" y="115.54" width="37.56" height="38.04"/>
  <rect class="cls-3" x="266.78" y="191.35" width="37.56" height="37.12"/>
  <rect class="cls-3" x="76.94" y="267.15" width="227.41" height="37.05"/>
  <rect class="cls-3" x="76.94" y="342.39" width="227.41" height="38.04"/>
</svg>